<svg width="150px" height="150px" viewBox="0 0 169 169" version="1.1" xmlns="http://www.w3.org/2000/svg" xmlns:xlink="http://www.w3.org/1999/xlink" xml:space="preserve" xmlns:serif="http://www.serif.com/" style="fill-rule:evenodd;clip-rule:evenodd;stroke-linejoin:round;stroke-miterlimit:2;">
    <g transform="matrix(1,0,0,1,108.023,-25.1587)">
        <g>
            <g transform="matrix(0.374355,0,0,0.327039,-106.96,26.3846)">
                <rect x="-2.839" y="-3.749" width="451.442" height="516.758" style="fill:rgb(0,50,65);"/>
            </g>
            <g transform="matrix(0.891784,0,0,0.891784,10.5807,54.2217)">
                <g transform="matrix(1.41644,0,0,1.41644,-109.064,-8.65398)">
                    <path d="M92.6,68.6C69.7,76 69.4,60.3 59.5,57.3C55.6,56.1 52.3,57 50,59C47.7,57 44.4,56.1 40.5,57.3C30.6,60.3 30.3,76 7.4,68.6C5.6,68 4.2,70.2 5.5,71.6C20.7,88.3 41.9,79.7 50,72C58.1,79.7 79.3,88.3 94.5,71.5C95.8,70.2 94.4,68 92.6,68.6Z" style="fill:rgb(255,100,24);fill-rule:nonzero;"/>
                </g>
                <g transform="matrix(1.41644,0,0,1.41644,-109.064,-8.65398)">
                    <path d="M96,23.6L95.6,23.5C94,23.1 92.4,22.5 90.9,21.9C90.1,21.6 89.2,21.2 88.1,20.9C83.5,19.5 78.5,18.8 73.3,18.8C68.3,18.8 63.6,19.4 59.2,20.7C55,21.9 53.7,23.2 50.1,23.2C46.5,23.2 45.2,22 41,20.7C36.6,19.4 31.9,18.8 26.9,18.8C21.6,18.8 16.7,19.5 12.1,20.9C10.8,21.3 9.8,21.7 8.9,22.1C7.5,22.7 6.1,23.1 4.6,23.5L4,23.6C3.1,23.8 2.5,24.6 2.5,25.5L2.5,28.7C2.5,29.4 2.9,30.1 3.5,30.4L5.3,31.5C6.2,32 6.8,33 6.8,34.1C6.8,44.4 14.4,53.3 24.6,54.3C36.3,55.4 46.2,46.2 46.2,34.7L46.2,34C46.1,31.8 47.9,30 50.1,30L50.5,30C52.5,30.1 53.9,32 53.8,34L53.8,34.2C53.5,44.4 61.4,53.4 71.6,54.3C83.3,55.4 93.2,46.2 93.2,34.7C93.2,33.3 94,32 95.2,31.3L96.5,30.5C97.1,30.1 97.5,29.5 97.5,28.8L97.5,25.6C97.5,24.7 96.9,23.9 96,23.6ZM24.4,50.3C16.6,49.3 10.6,42.3 10.8,34.4C10.8,32.3 11.3,30.4 12.1,28.5C12.7,27 14.1,26 15.7,25.6C19.2,24.7 22.9,24.3 26.8,24.3C30.5,24.3 34,24.7 37.3,25.5C38.9,25.9 40.2,26.8 40.9,28.3C41.8,30.3 42.3,32.5 42.3,34.8C42.3,44.1 34,51.5 24.4,50.3ZM72.6,50.4C64.1,49.9 57.3,42.5 57.7,34C57.8,32 58.3,30.1 59.1,28.3C59.8,26.8 61.2,25.8 62.7,25.5C66,24.7 69.5,24.4 73.1,24.4C77,24.4 80.7,24.8 84.2,25.7C85.9,26.1 87.3,27.3 87.9,28.9C88.7,30.8 89.1,32.8 89.1,34.8C89.2,43.7 81.7,50.9 72.6,50.4Z" style="fill:rgb(255,100,24);fill-rule:nonzero;"/>
                </g>
            </g>
        </g>
    </g>
</svg>
